<svg xmlns="http://www.w3.org/2000/svg" viewBox="0 0 100 100">
  <defs>
    <linearGradient id="grad" x1="0%" y1="0%" x2="100%" y2="100%">
      <stop offset="0%" style="stop-color:#0ea5e9;stop-opacity:1" />
      <stop offset="100%" style="stop-color:#8b5cf6;stop-opacity:1" />
    </linearGradient>
  </defs>
  <rect width="100" height="100" rx="20" fill="url(#grad)"/>
  <path d="M30 70 L30 35 C30 25 40 20 50 20 C60 20 70 25 70 35 L70 45 L55 45 L55 35 C55 32 53 30 50 30 C47 30 45 32 45 35 L45 65 C45 68 47 70 50 70 C53 70 55 68 55 65 L55 55 L45 55 L45 48 L70 48 L70 65 C70 75 60 80 50 80 C40 80 30 75 30 65 Z" fill="white"/>
</svg>
